<?xml version="1.0" encoding="UTF-8"?>
<svg version="1.1" xmlns="http://www.w3.org/2000/svg" width="1024" height="1024">
<path d="M0 0 C337.92 0 675.84 0 1024 0 C1024 337.92 1024 675.84 1024 1024 C686.08 1024 348.16 1024 0 1024 C0 686.08 0 348.16 0 0 Z " fill="#0068CE" transform="translate(0,0)"/>
<path d="M0 0 C3.34876957 2.79064131 5.00149048 5.75566161 5.51623535 10.14550781 C5.6143423 12.91427442 5.61278856 15.66718452 5.578125 18.4375 C5.57675034 19.4809407 5.57537567 20.52438141 5.57395935 21.59944153 C5.56489016 25.0248978 5.53331813 28.44969998 5.5 31.875 C5.48602316 34.2600057 5.4727664 36.64501572 5.46020508 39.0300293 C5.42215543 45.13142511 5.36110029 51.232338 5.29034424 57.33343506 C5.25178998 60.71786865 5.21872932 64.10231279 5.18701172 67.48681641 C4.81103101 105.05618773 3.05537359 141.1106866 -12.75 175.875 C-13.07758301 176.60041992 -13.40516602 177.32583984 -13.74267578 178.07324219 C-19.96696751 191.65069569 -28.12583111 203.44513598 -37.75 214.875 C-38.44738281 215.70773437 -39.14476562 216.54046875 -39.86328125 217.3984375 C-45.27809223 223.64999547 -51.17700326 228.86789549 -57.75 233.875 C-58.93529297 234.78378906 -58.93529297 234.78378906 -60.14453125 235.7109375 C-77.71871576 248.59284389 -103.58251803 260.52340898 -125.75 259.875 C-122.75559531 256.7270361 -119.3572978 254.21654633 -115.90625 251.59375 C-113.7578144 249.95796614 -113.7578144 249.95796614 -112.09375 248.15625 C-110.75 246.875 -110.75 246.875 -108.75 246.875 C-108.50378906 246.31296875 -108.25757813 245.7509375 -108.00390625 245.171875 C-106.52965415 242.47137583 -104.72104291 240.43470306 -102.6875 238.125 C-80.88792536 211.67158358 -73.58996665 174.00829588 -73.6081543 140.54199219 C-73.60467987 139.48019745 -73.60120544 138.41840271 -73.59762573 137.32443237 C-73.59033238 135.04269674 -73.58495324 132.76095432 -73.58133507 130.4792099 C-73.5741019 126.86346335 -73.558389 123.24784725 -73.53999329 119.63214111 C-73.48781555 109.36024657 -73.43950393 99.08843079 -73.42407227 88.81640625 C-73.4139863 82.51303797 -73.38466123 76.21001012 -73.34275246 69.90677643 C-73.33046291 67.51308008 -73.32531744 65.11933568 -73.32755089 62.72560883 C-73.32990651 59.38017868 -73.30772126 56.03572737 -73.2800293 52.69042969 C-73.28993141 51.21897995 -73.28993141 51.21897995 -73.30003357 49.71780396 C-73.20324009 42.58143491 -71.62172386 37.28873137 -66.98950195 31.78222656 C-61.6686764 27.3330452 -56.0260267 23.9270168 -49.9375 20.625 C-47.89654017 19.49717026 -45.85618498 18.36824571 -43.81640625 17.23828125 C-42.80078613 16.67834473 -41.78516602 16.1184082 -40.73876953 15.54150391 C-35.48327516 12.6111 -30.30164656 9.55251342 -25.12963867 6.47753906 C-8.29692026 -3.39419465 -8.29692026 -3.39419465 0 0 Z " fill="#F9FBFD" transform="translate(639.75,373.125)"/>
<path d="M0 0 C0.76183594 -0.04898437 1.52367187 -0.09796875 2.30859375 -0.1484375 C5.73645815 0.647635 6.66786735 2.4821087 8.5625 5.375 C9.07043457 8.52125549 9.07043457 8.52125549 9.08007812 12.10766602 C9.0870874 12.76567703 9.09409668 13.42368805 9.10131836 14.10163879 C9.11890857 16.27782599 9.10724246 18.45270549 9.09375 20.62890625 C9.09645198 22.16894271 9.10034024 23.70897749 9.10534668 25.24900818 C9.1112492 28.49144591 9.10268213 31.73344361 9.08398438 34.97583008 C9.06162781 39.04242991 9.07442282 43.10795819 9.09773827 47.17451763 C9.28455388 85.54243729 6.20123694 128.78770646 -21.4375 158.375 C-22.24574219 159.27347656 -23.05398438 160.17195312 -23.88671875 161.09765625 C-38.3491047 176.44678704 -57.32193491 185.68515031 -78.59179688 186.49511719 C-85.8756947 186.62184787 -93.15492536 186.54486867 -100.4375 186.375 C-98.21035038 184.67244665 -96.03390431 183.13284258 -93.625 181.6875 C-77.5311348 170.01155858 -73.18742665 148.89990338 -69.91119385 130.40370178 C-68.51706566 121.62817008 -68.15518018 113.11813621 -68.16310501 104.24960709 C-68.16408865 101.81817094 -68.15092093 99.38715514 -68.13412476 96.95578003 C-68.08836553 90.05486066 -68.06322577 83.15399625 -68.05664062 76.25292969 C-68.05161167 72.00259234 -68.02731451 67.75271148 -67.99131393 63.50252914 C-67.98156983 61.89592103 -67.97915432 60.28924982 -67.98448563 58.682621 C-68.03762242 41.90798689 -68.03762242 41.90798689 -61.72314453 34.31298828 C-56.01021418 29.51638623 -49.81694221 25.87542681 -43.3125 22.25 C-41.58979852 21.27454315 -39.86710824 20.29906499 -38.14546204 19.32174683 C-36.97734166 18.65885946 -35.80862855 17.99701553 -34.639328 17.33621216 C-27.76169129 13.44380761 -20.98179522 9.38768611 -14.20458984 5.32373047 C-13.35461426 4.81729004 -12.50463867 4.31084961 -11.62890625 3.7890625 C-10.88842041 3.3451416 -10.14793457 2.9012207 -9.38500977 2.44384766 C-6.26822227 0.73326778 -3.5057584 0.15370947 0 0 Z " fill="#F9FBFD" transform="translate(536.4375,446.625)"/>
<path d="M0 0 C1.18335938 -0.01933594 1.18335938 -0.01933594 2.390625 -0.0390625 C5.92571661 0.95591361 7.42648232 2.82477818 9.75 5.625 C10.38110352 8.81274414 10.38110352 8.81274414 10.37890625 12.41015625 C10.38304031 13.05944092 10.38717438 13.70872559 10.39143372 14.37768555 C10.39411206 16.48227104 10.35637574 18.58340462 10.3125 20.6875 C10.3044635 21.40541718 10.296427 22.12333435 10.28814697 22.86300659 C9.99993725 47.16790232 5.05694987 70.44943857 -11.9375 88.875 C-21.87265788 98.15296845 -33.96898145 104.1651838 -47.65625 104.77734375 C-53.49717193 104.49541806 -57.81802702 103.71605198 -62.25 99.625 C-66.03349067 94.94755807 -65.63345725 90.48075303 -65.5 84.75 C-65.48469238 83.76563965 -65.46938477 82.7812793 -65.45361328 81.76708984 C-65.41572631 79.58808582 -65.37057787 77.40919963 -65.31933594 75.23046875 C-65.25764142 72.02235362 -65.23665851 68.81657804 -65.23303223 65.60794067 C-65.22440237 62.8378788 -65.18894998 60.06852592 -65.14831543 57.29876709 C-65.12546216 55.29061085 -65.12934978 53.28220715 -65.13378906 51.27392578 C-64.96513621 43.17754764 -63.98735757 37.57838767 -58.25 31.625 C-55.40234375 29.375 -55.40234375 29.375 -52.1875 27.625 C-50.88090472 26.8917032 -49.57498081 26.15720954 -48.26953125 25.421875 C-47.50721191 25.00099609 -46.74489258 24.58011719 -45.95947266 24.14648438 C-42.65884207 22.29303963 -39.39662985 20.37688467 -36.13671875 18.453125 C-35.18644051 17.89268494 -35.18644051 17.89268494 -34.21696472 17.32092285 C-32.9180279 16.55471277 -31.61915445 15.78839526 -30.32034302 15.02197266 C-26.03728972 12.49668793 -21.74923948 9.98018072 -17.44921875 7.48388672 C-15.47774998 6.3383767 -13.51060136 5.18534672 -11.55078125 4.02001953 C-4.51857695 -0.07481088 -4.51857695 -0.07481088 0 0 Z " fill="#F8FBFC" transform="translate(440.25,528.375)"/>
<path d="M0 0 C1.98 0.66 3.96 1.32 6 2 C5.32795335 6.67377896 2.59018717 8.19603819 -0.9921875 10.92578125 C-5.5690521 15.65402075 -6.37381794 20.93065791 -6.36889648 27.29858398 C-6.37266296 27.99257294 -6.37642944 28.68656189 -6.38031006 29.40158081 C-6.38671075 30.89978631 -6.38644252 32.39803247 -6.38012505 33.89623833 C-6.37091036 36.29381027 -6.3813634 38.69061668 -6.39674377 41.08815002 C-6.43650286 47.9022612 -6.43808558 54.71630952 -6.43579102 61.53051758 C-6.44037082 85.51456916 -6.614502 109.16289907 -15 132 C-16.10802886 128.67591343 -15.88436178 127.69368269 -15.0390625 124.39453125 C-14.70261719 123.04198242 -14.70261719 123.04198242 -14.359375 121.66210938 C-14.11703125 120.72173828 -13.8746875 119.78136719 -13.625 118.8125 C-13.15463108 116.96591433 -12.68841783 115.11826466 -12.2265625 113.26953125 C-12.01596191 112.45073486 -11.80536133 111.63193848 -11.58837891 110.78833008 C-10.22798387 104.34141234 -9.86068363 98.08087988 -9.93408203 91.52026367 C-9.93875488 90.71436798 -9.94342773 89.90847229 -9.94824219 89.07815552 C-9.95867508 87.34362072 -9.97131376 85.60909802 -9.98596573 83.87459373 C-10.00811797 81.1301236 -10.02211073 78.38572371 -10.03366089 75.64118958 C-10.06714895 67.84345975 -10.10914998 60.04584805 -10.17138672 52.24829102 C-10.20897101 47.46694038 -10.23203311 42.68570631 -10.24569321 37.90423012 C-10.25375484 36.08409668 -10.26737408 34.26397915 -10.28662491 32.44392967 C-10.31301851 29.90672597 -10.32098854 27.37008729 -10.32470703 24.83276367 C-10.3370639 24.08000656 -10.34942078 23.32724945 -10.3621521 22.55168152 C-10.34252126 17.48840051 -10.34252126 17.48840051 -8.60470581 15.01045227 C-7 14 -7 14 -5 14 C-4.855625 12.72125 -4.71125 11.4425 -4.5625 10.125 C-4.29357254 7.74307106 -4.07773654 6.15547309 -3 4 C-2.34 4 -1.68 4 -1 4 C-0.67 2.68 -0.34 1.36 0 0 Z " fill="#1160A3" transform="translate(476,471)"/>
<path d="M0 0 C2.94863612 2.59760801 3.76978408 4.30935223 5 8 C5.09336663 9.8312179 5.12792527 11.66567161 5.12939453 13.49926758 C5.13254669 14.62927689 5.13569885 15.75928619 5.13894653 16.92353821 C5.1369223 18.15146591 5.13489807 19.37939362 5.1328125 20.64453125 C5.13424759 22.5575428 5.13424759 22.5575428 5.13571167 24.50920105 C5.13718886 27.22367554 5.13504007 29.93811722 5.13037109 32.65258789 C5.12478082 36.06235246 5.12798038 39.47203718 5.13381004 42.88179874 C5.215738 99.29827453 5.215738 99.29827453 -1 112 C-1.39764263 113.98821313 -1.75455166 115.98732362 -2 118 C-2.66 118 -3.32 118 -4 118 C-4.12375 118.721875 -4.2475 119.44375 -4.375 120.1875 C-4.9904931 122.95721894 -5.88444374 125.3970354 -7 128 C-8.19717044 124.40848869 -7.40179255 122.85258629 -6.15330505 119.3972168 C2.71996222 94.75825195 2.63190258 68.76255976 2.44952393 42.93408203 C2.43323296 39.63619446 2.44355828 36.33858362 2.45364285 33.04068756 C2.46058 29.8425059 2.45284294 26.6444947 2.44038582 23.44633484 C2.43589243 21.9312963 2.43551592 20.41623943 2.43945122 18.90119934 C2.44235876 16.80679026 2.42590152 14.71341833 2.40405273 12.61914062 C2.39864975 11.43340454 2.39324677 10.24766846 2.38768005 9.02600098 C1.96603253 5.73487001 1.32119348 4.33246923 -1 2 C-3.10580643 1.4802867 -3.10580643 1.4802867 -5.375 1.6875 C-6.16519531 1.72230469 -6.95539062 1.75710938 -7.76953125 1.79296875 C-10.23286454 2.0216144 -12.60319046 2.38146851 -15 3 C-12.62928392 -1.74143216 -4.56318251 -0.62256313 0 0 Z " fill="#1A66A8" transform="translate(542,446)"/>
<path d="M0 0 C1.12717992 3.38153976 1.02637038 5.70934486 0.87890625 9.265625 C0.80579224 11.17420288 0.80579224 11.17420288 0.73120117 13.12133789 C0.70335541 13.79536652 0.67550964 14.46939514 0.64682007 15.16384888 C0.50490148 18.67503691 0.39009647 22.18711541 0.2734375 25.69921875 C0.24986679 26.40328354 0.22629608 27.10734833 0.20201111 27.83274841 C-0.01114595 34.24224548 -0.21558121 40.64997174 -0.3125 47.0625 C-0.34206787 47.98772461 -0.37163574 48.91294922 -0.40209961 49.86621094 C-0.45240373 55.40277528 0.16167064 58.69112238 4 63 C9.33582677 66.76711579 17.99408659 66.45802953 24.25 65.5625 C25.1575 65.376875 26.065 65.19125 27 65 C27.495 65.99 27.495 65.99 28 67 C20.43544021 68.74566764 11.55762224 68.92960568 4 67 C2.25 65 2.25 65 1 63 C0.01 62.67 -0.98 62.34 -2 62 C-2.99824905 59.00525286 -3.15324032 56.92654666 -3.20532227 53.79418945 C-3.2352401 52.20287956 -3.2352401 52.20287956 -3.26576233 50.579422 C-3.28247482 49.43559555 -3.29918732 48.2917691 -3.31640625 47.11328125 C-3.33718735 45.94113571 -3.35796844 44.76899017 -3.37937927 43.56132507 C-3.44483818 39.81177714 -3.50374296 36.06215837 -3.5625 32.3125 C-3.60568868 29.77277909 -3.64930308 27.23306538 -3.69335938 24.69335938 C-3.80051586 18.46231478 -3.9022892 12.23119949 -4 6 C-3.01 5.67 -2.02 5.34 -1 5 C-0.67 3.35 -0.34 1.7 0 0 Z " fill="#1D6AB6" transform="translate(376,566)"/>
<path d="M0 0 C2.33944736 0.28730055 4.6739143 0.61936779 7 1 C7 1.99 7 2.98 7 4 C9.11785113 5.11785113 9.11785113 5.11785113 12 6 C12.99 6.33 13.98 6.66 15 7 C15.33 10.63 15.66 14.26 16 18 C14.68 17.67 13.36 17.34 12 17 C9.76154985 18.82915641 9.76154985 18.82915641 9.6875 21.5 C9.460625 22.325 9.23375 23.15 9 24 C6.4375 25.3125 6.4375 25.3125 4 26 C4 25.34 4 24.68 4 24 C4.99 24 5.98 24 7 24 C6.67 23.34 6.34 22.68 6 22 C5.95907063 19.66702567 5.95758277 17.33294775 6 15 C6 14.67 6 14.34 6 14 C4.35360035 12.64172029 2.68704193 11.30745749 1 10 C1.66 9.01 2.32 8.02 3 7 C1.68 6.67 0.36 6.34 -1 6 C-1.042721 4.33388095 -1.04063832 2.66617115 -1 1 C-0.67 0.67 -0.34 0.34 0 0 Z " fill="#0B7ED8" transform="translate(490,441)"/>
<path d="M0 0 C1.36925333 2.73850666 0.35886123 4.18055375 -0.49872971 6.97691536 C-1.37662117 10.52001129 -1.30877205 14.05578876 -1.31884766 17.68920898 C-1.32889328 18.52903824 -1.3389389 19.36886749 -1.34928894 20.23414612 C-1.37998377 22.98812221 -1.39711774 25.74200169 -1.4140625 28.49609375 C-1.43278518 30.41423872 -1.45235941 32.33237555 -1.4727478 34.25050354 C-1.52395873 39.28261504 -1.56364343 44.31475322 -1.60089111 49.34698486 C-1.6410001 54.48855121 -1.69206094 59.63000766 -1.7421875 64.77148438 C-1.83881603 74.84757893 -1.9232625 84.92373569 -2 95 C-2.66 95 -3.32 95 -4 95 C-4 95.66 -4 96.32 -4 97 C-5.65 96.67 -7.3 96.34 -9 96 C-9.1875 93.625 -9.1875 93.625 -9 91 C-6 89 -6 89 -3 89 C-3 78.11 -3 67.22 -3 56 C-4.65 56 -6.3 56 -8 56 C-8.33 55.34 -8.66 54.68 -9 54 C-7.02 53.34 -5.04 52.68 -3 52 C-3.0721875 50.96746094 -3.144375 49.93492187 -3.21875 48.87109375 C-3.31437581 47.39334936 -3.40794643 45.91547122 -3.5 44.4375 C-3.54914551 43.64915771 -3.59829102 42.86081543 -3.64892578 42.04858398 C-3.91317068 37.28711179 -4.01860861 32.55801935 -3.9609375 27.7890625 C-3.94869141 26.75467041 -3.93644531 25.72027832 -3.92382812 24.65454102 C-3.89159074 22.61310847 -3.84627815 20.57183538 -3.78710938 18.53100586 C-3.76487305 17.12540405 -3.76487305 17.12540405 -3.7421875 15.69140625 C-3.7201123 14.85810791 -3.69803711 14.02480957 -3.67529297 13.16625977 C-4.07275234 10.51463793 -4.95551932 9.66269628 -7 8 C-6.34 7.01 -5.68 6.02 -5 5 C-4.67 5.33 -4.34 5.66 -4 6 C-3.67 5.34 -3.34 4.68 -3 4 C-2.34 4 -1.68 4 -1 4 C-1.33 3.01 -1.66 2.02 -2 1 C-1.34 0.67 -0.68 0.34 0 0 Z " fill="#0E7DDC" transform="translate(567,409)"/>
<path d="M0 0 C2 2 2 2 2.24723816 3.9430542 C2.24581314 4.74140686 2.24438812 5.53975952 2.24291992 6.36230469 C2.24595627 7.27636581 2.24899261 8.19042694 2.25212097 9.13218689 C2.24497574 10.13528397 2.23783051 11.13838104 2.23046875 12.171875 C2.23037308 13.22206314 2.2302774 14.27225128 2.23017883 15.35426331 C2.22642493 18.81962035 2.207415 22.28470091 2.1875 25.75 C2.18063403 28.13565981 2.17412671 30.52132068 2.16796875 32.90698242 C2.0850866 55.61069021 1.61607509 78.30516998 1 101 C0.67 101 0.34 101 0 101 C-0.15363306 88.12660873 -0.3018149 75.25316751 -0.4429636 62.37963295 C-0.50867165 56.40246765 -0.57628448 50.42533635 -0.64819336 44.44824219 C-0.71747078 38.68412925 -0.78181935 32.91998075 -0.84269524 27.15577316 C-0.8668416 24.95244714 -0.89278876 22.74914012 -0.92053413 20.54585648 C-0.95897893 17.46891504 -0.99112202 14.39196936 -1.02172852 11.31494141 C-1.03467453 10.39640884 -1.04762054 9.47787628 -1.06095886 8.5315094 C-1.11405216 2.22810432 -1.11405216 2.22810432 0 0 Z " fill="#C9E5F5" transform="translate(643,379)"/>
<path d="M0 0 C0.66 1.32 1.32 2.64 2 4 C1.01 4 0.02 4 -1 4 C-1.33 4.99 -1.66 5.98 -2 7 C-2.66 7 -3.32 7 -4 7 C-4.12375 7.61875 -4.2475 8.2375 -4.375 8.875 C-5 11 -5 11 -7 13 C-8.03161608 14.98387708 -9.03523618 16.98276656 -10 19 C-7.36 19 -4.72 19 -2 19 C-5.50575238 21.01078066 -8.99930785 21.79280998 -12.9375 22.625 C-14.74541016 23.01558594 -14.74541016 23.01558594 -16.58984375 23.4140625 C-19.49407549 23.91307139 -22.06720235 24.12243178 -25 24 C-22.00559531 20.8520361 -18.6072978 18.34154633 -15.15625 15.71875 C-13.0078144 14.08296614 -13.0078144 14.08296614 -11.34375 12.28125 C-10 11 -10 11 -8 11 C-7.73445312 10.41734375 -7.46890625 9.8346875 -7.1953125 9.234375 C-5.96697004 6.93825772 -4.59685061 5.19643982 -2.875 3.25 C-2.33617187 2.63640625 -1.79734375 2.0228125 -1.2421875 1.390625 C-0.83226562 0.93171875 -0.42234375 0.4728125 0 0 Z " fill="#E5F5FA" transform="translate(539,609)"/>
<path d="M0 0 C0.33 0 0.66 0 1 0 C2.42220648 16.63473654 2.09591446 33.32121297 2 50 C2.99 50 3.98 50 5 50 C5.33 52.31 5.66 54.62 6 57 C4.02 57.495 4.02 57.495 2 58 C1.93941406 58.73605469 1.87882813 59.47210937 1.81640625 60.23046875 C1.73261719 61.20628906 1.64882813 62.18210937 1.5625 63.1875 C1.48128906 64.15042969 1.40007813 65.11335937 1.31640625 66.10546875 C1.02333849 68.78649602 0.57296246 71.3662986 0 74 C-0.33 74 -0.66 74 -1 74 C-0.67 49.58 -0.34 25.16 0 0 Z " fill="#0F79D1" transform="translate(547,454)"/>
<path d="M0 0 C0.33 0 0.66 0 1 0 C1.4744774 8.79101181 0.830147 16.03385688 -2.125 24.35546875 C-3.15706174 27.01043627 -3.15706174 27.01043627 -3 30 C-3.66 30 -4.32 30 -5 30 C-5.2371875 31.2478125 -5.474375 32.495625 -5.71875 33.78125 C-7.01733332 39.61572999 -9.20844078 44.99440085 -11.5 50.5 C-11.90347656 51.5003125 -12.30695312 52.500625 -12.72265625 53.53125 C-15.74492087 60.87246044 -15.74492087 60.87246044 -18 62 C-16.60133673 57.62751672 -15.17261234 53.29412673 -13.38671875 49.0625 C-6.75113854 33.29693555 -3.25298325 16.74418141 0 0 Z " fill="#185D9F" transform="translate(642,494)"/>
<path d="M0 0 C2.12534793 1.70197749 2.9289082 2.62858792 3.44824219 5.34179688 C3.48079102 6.29119141 3.51333984 7.24058594 3.546875 8.21875 C3.58756104 9.35119141 3.62824707 10.48363281 3.67016602 11.65039062 C3.69651123 12.92076172 3.72285645 14.19113281 3.75 15.5 C3.7677951 16.15508545 3.78559021 16.8101709 3.80392456 17.48510742 C4.48419124 42.96295609 3.56237589 68.52508259 3 94 C2.67 94 2.34 94 2 94 C2 64.63 2 35.26 2 5 C1.34 5 0.68 5 0 5 C-0.33 4.01 -0.66 3.02 -1 2 C-0.67 1.34 -0.34 0.68 0 0 Z " fill="#1175D4" transform="translate(644,376)"/>
<path d="M0 0 C-0.33 0.99 -0.66 1.98 -1 3 C-1.99 3.33 -2.98 3.66 -4 4 C-4.80212628 5.87387216 -4.80212628 5.87387216 -5.1875 8.0625 C-5.42533203 9.16271484 -5.42533203 9.16271484 -5.66796875 10.28515625 C-5.83232422 11.13400391 -5.83232422 11.13400391 -6 12 C-6.99 12 -7.98 12 -9 12 C-9.33 11.34 -9.66 10.68 -10 10 C-12.10588701 10.78707902 -14.20965616 11.57982626 -16.3125 12.375 C-18.07013672 13.03628906 -18.07013672 13.03628906 -19.86328125 13.7109375 C-23.08553593 14.91489648 -23.08553593 14.91489648 -26 17 C-28.1875 16.625 -28.1875 16.625 -30 16 C-29.49662109 15.72849121 -28.99324219 15.45698242 -28.47460938 15.17724609 C-26.14610492 13.91641749 -23.82308749 12.64577984 -21.5 11.375 C-20.70851563 10.94832031 -19.91703125 10.52164063 -19.1015625 10.08203125 C-14.30905792 7.45008202 -10.01188493 4.62605516 -5.80664062 1.12353516 C-4 0 -4 0 0 0 Z " fill="#0570CC" transform="translate(589,604)"/>
<path d="M0 0 C0.66 1.32 1.32 2.64 2 4 C1.54109375 4.38671875 1.0821875 4.7734375 0.609375 5.171875 C-4.43117172 9.34384315 -4.43117172 9.34384315 -9 14 C-9 14.99 -9 15.98 -9 17 C-13.3164922 17.76173392 -16.74433453 18.16063604 -21 17 C-18.0007196 14.4844745 -14.91952158 12.28810949 -11.625 10.1875 C-7.18429386 7.27909782 -3.5850309 3.89627152 0 0 Z " fill="#0B68BC" transform="translate(432,612)"/>
<path d="M0 0 C2.87537584 5.38869956 3.07452215 10.94880115 3 17 C1.6875 20.5625 1.6875 20.5625 0 24 C-0.83556812 27.9764989 -1.43842401 31.9764732 -2 36 C-2.66 36 -3.32 36 -4 36 C-4.66 38.31 -5.32 40.62 -6 43 C-7.39509975 38.81470076 -5.90656376 35.70184875 -4.6875 31.625 C-1.72061321 21.17710867 -0.72036201 10.80543016 0 0 Z " fill="#1266B1" transform="translate(450,552)"/>
<path d="M0 0 C2.33944736 0.28730055 4.6739143 0.61936779 7 1 C7 1.99 7 2.98 7 4 C7.66 4.33 8.32 4.66 9 5 C8.75 7.375 8.75 7.375 8 10 C5.9375 11.3125 5.9375 11.3125 4 12 C3.01 11.34 2.02 10.68 1 10 C1.66 9.01 2.32 8.02 3 7 C1.68 6.67 0.36 6.34 -1 6 C-1.042721 4.33388095 -1.04063832 2.66617115 -1 1 C-0.67 0.67 -0.34 0.34 0 0 Z " fill="#1080D8" transform="translate(490,441)"/>
<path d="M0 0 C1.65 0 3.3 0 5 0 C1.6458582 3.59255694 -2.35582393 5.77835962 -6.5625 8.25 C-7.34302734 8.72179687 -8.12355469 9.19359375 -8.92773438 9.6796875 C-9.67474609 10.12054688 -10.42175781 10.56140625 -11.19140625 11.015625 C-11.87404541 11.42071289 -12.55668457 11.82580078 -13.26000977 12.24316406 C-14.12130493 12.61779785 -14.12130493 12.61779785 -15 13 C-15.66 12.67 -16.32 12.34 -17 12 C-16.690625 10.824375 -16.690625 10.824375 -16.375 9.625 C-16.25125 8.75875 -16.1275 7.8925 -16 7 C-16.66 6.34 -17.32 5.68 -18 5 C-16.02 4.67 -14.04 4.34 -12 4 C-12 4.66 -12 5.32 -12 6 C-10.68 6 -9.36 6 -8 6 C-8 5.34 -8 4.68 -8 4 C-6.68 4 -5.36 4 -4 4 C-4 3.34 -4 2.68 -4 2 C-2.68 2 -1.36 2 0 2 C0 1.34 0 0.68 0 0 Z " fill="#0C70C0" transform="translate(515,453)"/>
<path d="M0 0 C0.33 0 0.66 0 1 0 C1.33 2.97 1.66 5.94 2 9 C2.33 9 2.66 9 3 9 C3 13.95 3 18.9 3 24 C3.66 24.33 4.32 24.66 5 25 C5 25.66 5 26.32 5 27 C5.804375 27.268125 6.60875 27.53625 7.4375 27.8125 C8.283125 28.204375 9.12875 28.59625 10 29 C10.33 29.99 10.66 30.98 11 32 C6.03570389 30.75892597 3.86128172 29.23893588 1 25 C-0.27861615 22.44276771 -0.11336609 20.63262898 -0.09765625 17.7734375 C-0.09443359 16.7421875 -0.09121094 15.7109375 -0.08789062 14.6484375 C-0.07951172 13.56820312 -0.07113281 12.48796875 -0.0625 11.375 C-0.05798828 10.28703125 -0.05347656 9.1990625 -0.04882812 8.078125 C-0.03701776 5.38536211 -0.02054778 2.69270812 0 0 Z " fill="#DCF1FB" transform="translate(375,600)"/>
<path d="M0 0 C0.33 0 0.66 0 1 0 C1.02505615 1.08829102 1.0501123 2.17658203 1.07592773 3.29785156 C1.1711166 7.3907159 1.27105055 11.48345372 1.37231445 15.57617188 C1.41524697 17.33720918 1.45694497 19.09827708 1.49731445 20.859375 C1.72155233 30.6040333 1.9999628 40.29657154 3 50 C1.68 50.66 0.36 51.32 -1 52 C-0.67 34.84 -0.34 17.68 0 0 Z " fill="#2E70B3" transform="translate(644,434)"/>
<path d="M0 0 C-0.33 0.99 -0.66 1.98 -1 3 C-10.57 2.67 -20.14 2.34 -30 2 C-30 1.34 -30 0.68 -30 0 C-25.93791759 -0.19739706 -21.87532945 -0.38118364 -17.8125 -0.5625 C-16.66201172 -0.61857422 -15.51152344 -0.67464844 -14.32617188 -0.73242188 C-13.21435547 -0.78076172 -12.10253906 -0.82910156 -10.95703125 -0.87890625 C-9.42526245 -0.94960327 -9.42526245 -0.94960327 -7.86254883 -1.02172852 C-5.09707955 -1.00073689 -2.68354309 -0.64017052 0 0 Z " fill="#1161A9" transform="translate(466,633)"/>
<path d="M0 0 C0.33 0 0.66 0 1 0 C1.02692484 2.29160319 1.04636124 4.58329546 1.0625 6.875 C1.07410156 8.15117188 1.08570313 9.42734375 1.09765625 10.7421875 C1 14 1 14 0 16 C-0.17955402 17.55898491 -0.32007325 19.12260877 -0.4375 20.6875 C-0.84163951 25.04462904 -1.51054621 28.88209833 -3 33 C-3.99 33.495 -3.99 33.495 -5 34 C-5 34.99 -5 35.98 -5 37 C-5.66 37 -6.32 37 -7 37 C-6.74605469 36.00484375 -6.49210937 35.0096875 -6.23046875 33.984375 C-3.43577928 22.73888234 -1.56659559 11.47649954 0 0 Z " fill="#D5F0FA" transform="translate(468,566)"/>
<path d="M0 0 C2.97 0.495 2.97 0.495 6 1 C6 1.66 6 2.32 6 3 C6.66 3 7.32 3 8 3 C7.67 4.010625 7.34 5.02125 7 6.0625 C5.33411958 12.5500484 5.84423157 19.35388026 6 26 C5.34 26.33 4.68 26.66 4 27 C3.67 19.08 3.34 11.16 3 3 C2.34 3 1.68 3 1 3 C0.67 2.01 0.34 1.02 0 0 Z " fill="#0776D2" transform="translate(448,528)"/>
<path d="M0 0 C1 2 1 2 0.1015625 4.81640625 C-1.6160108 10.38336441 -1.46728366 16.15785316 -1.625 21.9375 C-1.66367187 23.09830078 -1.70234375 24.25910156 -1.7421875 25.45507812 C-1.83595387 28.30323169 -1.92165917 31.15138738 -2 34 C-2.33 34 -2.66 34 -3 34 C-3.01458252 33.31897217 -3.02916504 32.63794434 -3.04418945 31.9362793 C-3.11862696 28.85277785 -3.21530083 25.77036433 -3.3125 22.6875 C-3.33505859 21.61564453 -3.35761719 20.54378906 -3.38085938 19.43945312 C-3.41630859 18.41142578 -3.45175781 17.38339844 -3.48828125 16.32421875 C-3.51446533 15.37635498 -3.54064941 14.42849121 -3.56762695 13.4519043 C-4.06200245 10.64839606 -4.80655626 9.74403036 -7 8 C-6.34 7.01 -5.68 6.02 -5 5 C-4.67 5.33 -4.34 5.66 -4 6 C-3.67 5.34 -3.34 4.68 -3 4 C-2.34 4 -1.68 4 -1 4 C-1.33 3.01 -1.66 2.02 -2 1 C-1.34 0.67 -0.68 0.34 0 0 Z " fill="#0979D7" transform="translate(567,409)"/>
<path d="M0 0 C3 0.125 3 0.125 4 1.125 C4.04063832 2.79117115 4.042721 4.45888095 4 6.125 C-1.75 8.125 -1.75 8.125 -4 8.125 C-4.04241723 5.79205225 -4.04092937 3.45797433 -4 1.125 C-3 0.125 -3 0.125 0 0 Z " fill="#1583DB" transform="translate(462,435.875)"/>
<path d="M0 0 C0.33 0 0.66 0 1 0 C1.10655578 6.44070471 0.96205088 12.62641289 0 19 C-0.66 19 -1.32 19 -2 19 C-1.62875 20.60875 -1.62875 20.60875 -1.25 22.25 C-1 26 -1 26 -2.9375 28.4375 C-3.618125 28.953125 -4.29875 29.46875 -5 30 C-4.25826663 23.44151546 -3.14229492 16.9880122 -1.9375 10.5 C-1.75123047 9.48679687 -1.56496094 8.47359375 -1.37304688 7.4296875 C-0.91738299 4.95274538 -0.4596565 2.47620374 0 0 Z " fill="#DCF3FB" transform="translate(565,537)"/>
<path d="M0 0 C1.4540625 0.0309375 1.4540625 0.0309375 2.9375 0.0625 C2.32759109 3.62030196 1.3591319 6.7453589 -0.0625 10.0625 C-1.3825 10.0625 -2.7025 10.0625 -4.0625 10.0625 C-4.08939216 8.58343108 -4.10884621 7.10422517 -4.125 5.625 C-4.13660156 4.80128906 -4.14820313 3.97757812 -4.16015625 3.12890625 C-4.00103255 -0.23815127 -3.43619093 0.07012635 0 0 Z " fill="#2590E6" transform="translate(434.0625,436.9375)"/>
<path d="M0 0 C0.33 0 0.66 0 1 0 C1.07408587 4.09333905 1.1285704 8.18641933 1.16479492 12.28027344 C1.17989358 13.67324622 1.20037444 15.06617138 1.22631836 16.45898438 C1.26265122 18.45942885 1.27811192 20.46021827 1.29296875 22.4609375 C1.31653442 24.26763916 1.31653442 24.26763916 1.34057617 26.11083984 C1.22818604 27.0642627 1.1157959 28.01768555 1 29 C0.01 29.66 -0.98 30.32 -2 31 C-2.185625 30.1028125 -2.185625 30.1028125 -2.375 29.1875 C-2.95475985 26.73768652 -2.95475985 26.73768652 -5 24 C-2 22 -2 22 0 21 C0 14.07 0 7.14 0 0 Z " fill="#0378D7" transform="translate(466,507)"/>
<path d="M0 0 C2 2 2 2 2 5 C0.35666496 6.03789581 -1.31243867 7.03567924 -3 8 C-3.99 9.485 -3.99 9.485 -5 11 C-5.845625 11.495 -6.69125 11.99 -7.5625 12.5 C-10.29801937 13.82369166 -10.29801937 13.82369166 -11 17 C-12.32 16.67 -13.64 16.34 -15 16 C-14.20335937 15.23816406 -14.20335937 15.23816406 -13.390625 14.4609375 C-8.59565163 9.82566021 -8.59565163 9.82566021 -4.625 4.5 C-4.08875 3.675 -3.5525 2.85 -3 2 C-2.34 2 -1.68 2 -1 2 C-0.67 1.34 -0.34 0.68 0 0 Z " fill="#116EC2" transform="translate(524,594)"/>
<path d="M0 0 C0.66 0.33 1.32 0.66 2 1 C2.11354457 7.7495936 2.05996573 14.32221592 1 21 C0.34 21.66 -0.32 22.32 -1 23 C-2.0188167 17.57818523 -1.86360471 13.00105558 -1.0625 7.5625 C-0.96259766 6.83095703 -0.86269531 6.09941406 -0.75976562 5.34570312 C-0.51502767 3.56261231 -0.25872147 1.78111558 0 0 Z " fill="#1A6AB6" transform="translate(544,524)"/>
<path d="M0 0 C0.99 0.33 1.98 0.66 3 1 C3 3.31 3 5.62 3 8 C1.02 8.33 -0.96 8.66 -3 9 C-4 6 -4 6 -3.1875 3.375 C-2 1 -2 1 0 0 Z " fill="#2892E4" transform="translate(468,461)"/>
<path d="M0 0 C1.4540625 0.0309375 1.4540625 0.0309375 2.9375 0.0625 C2.9375 2.3725 2.9375 4.6825 2.9375 7.0625 C0.93795254 7.10504356 -1.06291636 7.10330783 -3.0625 7.0625 C-4.0625 6.0625 -4.0625 6.0625 -4.1875 3.5625 C-4.00295237 -0.12845252 -3.76342282 0.07680455 0 0 Z " fill="#1682DA" transform="translate(550.0625,375.9375)"/>
<path d="M0 0 C0.33 1.65 0.66 3.3 1 5 C-0.32 5 -1.64 5 -3 5 C-3 5.66 -3 6.32 -3 7 C-4.98 7.99 -4.98 7.99 -7 9 C-8 8 -8 8 -8.375 5.625 C-8 3 -8 3 -5.6875 1.1875 C-3 0 -3 0 0 0 Z " fill="#0575D1" transform="translate(416,534)"/>
<path d="M0 0 C0.9075 0.639375 1.815 1.27875 2.75 1.9375 C9.6626455 5.89962608 18.38704323 5.5571957 26 4 C26.33 4.66 26.66 5.32 27 6 C19.43544021 7.74566764 10.55762224 7.92960568 3 6 C1.0625 4.0625 1.0625 4.0625 0 2 C0 1.34 0 0.68 0 0 Z " fill="#125CA5" transform="translate(377,627)"/>
<path d="M0 0 C0.99 0.33 1.98 0.66 3 1 C2.25234375 1.43570313 1.5046875 1.87140625 0.734375 2.3203125 C-6.90448722 6.92567275 -6.90448722 6.92567275 -12 14 C-13 11 -13 11 -13 7 C-12.67 6.34 -12.34 5.68 -12 5 C-11.01 5 -10.02 5 -9 5 C-8.67 4.34 -8.34 3.68 -8 3 C-6.33678518 2.64984951 -4.66965451 2.31802943 -3 2 C-2.01 1.34 -1.02 0.68 0 0 Z " fill="#1365AF" transform="translate(390,553)"/>
<path d="M0 0 C1.98 0 3.96 0 6 0 C6.33 1.65 6.66 3.3 7 5 C4.625 6.0625 4.625 6.0625 2 7 C1.34 6.67 0.68 6.34 0 6 C0 4.02 0 2.04 0 0 Z " fill="#268FE6" transform="translate(581,652)"/>
<path d="M0 0 C1.2065625 0.0309375 1.2065625 0.0309375 2.4375 0.0625 C2.7675 1.7125 3.0975 3.3625 3.4375 5.0625 C2.7775 5.0625 2.1175 5.0625 1.4375 5.0625 C1.4375 5.7225 1.4375 6.3825 1.4375 7.0625 C-0.2125 6.7325 -1.8625 6.4025 -3.5625 6.0625 C-3.605221 4.39638095 -3.60313832 2.72867115 -3.5625 1.0625 C-2.5625 0.0625 -2.5625 0.0625 0 0 Z " fill="#228DE1" transform="translate(561.5625,498.9375)"/>
<path d="M0 0 C0.66 1.32 1.32 2.64 2 4 C-2.45168397 8.30284347 -5.89580099 10.7542451 -12 12 C-8 8 -4 4 0 0 Z " fill="#0C61AF" transform="translate(432,612)"/>
<path d="M0 0 C1.65 0.33 3.3 0.66 5 1 C5.33 2.65 5.66 4.3 6 6 C4.02 6.33 2.04 6.66 0 7 C-1.125 2.25 -1.125 2.25 0 0 Z " fill="#218BE4" transform="translate(621,317)"/>
<path d="M0 0 C0.66 0 1.32 0 2 0 C1.67841271 3.00148136 1.01846979 3.98205792 -1.1875 6.125 C-4.07903627 8.05269085 -6.66599477 9.06957994 -10 10 C-10.33 8.68 -10.66 7.36 -11 6 C-10.37351562 5.90203125 -9.74703125 5.8040625 -9.1015625 5.703125 C-7.87566406 5.47882812 -7.87566406 5.47882812 -6.625 5.25 C-5.81289063 5.11078125 -5.00078125 4.9715625 -4.1640625 4.828125 C-1.82290908 4.18250739 -1.82290908 4.18250739 -0.7109375 1.921875 C-0.47632813 1.28765625 -0.24171875 0.6534375 0 0 Z " fill="#0D68B5" transform="translate(446,622)"/>
<path d="M0 0 C1.98 0.66 3.96 1.32 6 2 C5.67 3.32 5.34 4.64 5 6 C2.6875 6.6875 2.6875 6.6875 0 7 C-1.8125 5.5625 -1.8125 5.5625 -3 4 C-2.34 4 -1.68 4 -1 4 C-0.67 2.68 -0.34 1.36 0 0 Z " fill="#0776CB" transform="translate(476,471)"/>
<path d="M0 0 C0 0.99 0 1.98 0 3 C5.61 3.33 11.22 3.66 17 4 C17 4.33 17 4.66 17 5 C8.75 5 0.5 5 -8 5 C-5.21040099 2.90780074 -3.06775511 1.42431487 0 0 Z " fill="#CFF2FD" transform="translate(444,628)"/>
<path d="M0 0 C0.66 0.33 1.32 0.66 2 1 C-2.96395927 6.73957791 -8.54841549 8.83568992 -16 10 C-12.77333979 7.47478766 -9.39568033 5.34337749 -5.875 3.25 C-4.29332031 2.29867187 -4.29332031 2.29867187 -2.6796875 1.328125 C-1.79539062 0.88984375 -0.91109375 0.4515625 0 0 Z " fill="#125FAB" transform="translate(575,611)"/>
<path d="M0 0 C0.99 0.33 1.98 0.66 3 1 C3.70211894 2.65204456 4.36971413 4.31923769 5 6 C5.66 6.33 6.32 6.66 7 7 C6.67 8.32 6.34 9.64 6 11 C5.67 10.34 5.34 9.68 5 9 C3.35 9.33 1.7 9.66 0 10 C0 9.01 0 8.02 0 7 C0.66 7 1.32 7 2 7 C2 6.34 2 5.68 2 5 C1.34 5 0.68 5 0 5 C0 3.35 0 1.7 0 0 Z " fill="#0D82E0" transform="translate(453,437)"/>
<path d="M0 0 C0.66 0.33 1.32 0.66 2 1 C-1.34748802 5.4951982 -2.52288777 6.90457755 -8 8 C-9.92584982 9.86253421 -11.39083735 11.83912445 -13 14 C-13.66 13.67 -14.32 13.34 -15 13 C-10.76420311 7.66554329 -6.41401789 2.69831098 0 0 Z " fill="#DDF5FB" transform="translate(584,397)"/>
<path d="M0 0 C0 2.62113708 -0.31292445 4.50935112 -1 7 C-1.99 7 -2.98 7 -4 7 C-4.185625 7.886875 -4.37125 8.77375 -4.5625 9.6875 C-6.51562538 14.18818022 -8.89075404 15.41269699 -13 18 C-11.70944264 15.25032269 -10.28915704 12.92126698 -8.3984375 10.546875 C-7.66367187 9.61875 -7.66367187 9.61875 -6.9140625 8.671875 C-6.40617188 8.03765625 -5.89828125 7.4034375 -5.375 6.75 C-4.859375 6.1003125 -4.34375 5.450625 -3.8125 4.78125 C-2.54485821 3.18496033 -1.27285639 1.59213474 0 0 Z " fill="#1661A4" transform="translate(613,573)"/>
<path d="M0 0 C0.33 0 0.66 0 1 0 C1.33853295 8.16240568 0.29901921 15.95072024 -1 24 C-1.33 24 -1.66 24 -2 24 C-2.87890625 17.84765625 -2.87890625 17.84765625 -3 16 C-2.67 15.67 -2.34 15.34 -2 15 C-1.60056824 12.47804033 -1.24920152 9.97036344 -0.9375 7.4375 C-0.84662109 6.72658203 -0.75574219 6.01566406 -0.66210938 5.28320312 C-0.43760497 3.52261597 -0.21831603 1.76136522 0 0 Z " fill="#E1F7FD" transform="translate(642,480)"/>
<path d="M0 0 C0 3.96130371 -1.34877125 4.82914401 -4 7.6875 C-4.7425 8.49574219 -5.485 9.30398438 -6.25 10.13671875 C-6.8275 10.75160156 -7.405 11.36648438 -8 12 C-8.87840996 8.90279155 -8.99435406 7.09354597 -8 4 C-7.34 4.33 -6.68 4.66 -6 5 C-5.34 5 -4.68 5 -4 5 C-3.8453125 4.0409375 -3.8453125 4.0409375 -3.6875 3.0625 C-3.460625 2.381875 -3.23375 1.70125 -3 1 C-2.01 0.67 -1.02 0.34 0 0 Z " fill="#0C64B1" transform="translate(539,607)"/>
<path d="M0 0 C1.98 0 3.96 0 6 0 C6 1.98 6 3.96 6 6 C4.33388095 6.042721 2.66617115 6.04063832 1 6 C0 5 0 5 -0.0625 2.4375 C-0.041875 1.633125 -0.02125 0.82875 0 0 Z " fill="#2991E7" transform="translate(356,495)"/>
<path d="M0 0 C1.98 0.66 3.96 1.32 6 2 C6 3.32 6 4.64 6 6 C4.02 6 2.04 6 0 6 C-1.125 2.25 -1.125 2.25 0 0 Z " fill="#1786DF" transform="translate(561,644)"/>
<path d="M0 0 C1.65 0 3.3 0 5 0 C5.38218767 1.65614657 5.71395102 3.32457024 6 5 C5 6 5 6 2.4375 6.0625 C1.2309375 6.0315625 1.2309375 6.0315625 0 6 C0 4.02 0 2.04 0 0 Z " fill="#2A93E8" transform="translate(501,638)"/>
<path d="M0 0 C0.66 0.33 1.32 0.66 2 1 C-1.51372549 4.76470588 -1.51372549 4.76470588 -3.9375 5.9375 C-6.83998363 7.43271884 -8.77083186 9.64698918 -11 12 C-11 7.95233201 -9.76804499 6.90999601 -7 4 C-4.71287793 2.37507363 -2.55218136 1.22882806 0 0 Z " fill="#DEF5FD" transform="translate(390,555)"/>
<path d="M0 0 C0.33 0 0.66 0 1 0 C1.19355213 7.65606218 1.3479743 14.66258031 -1 22 C-1.33 22 -1.66 22 -2 22 C-2.23576736 14.37685526 -1.83717315 7.41430591 0 0 Z " fill="#166AB5" transform="translate(642,494)"/>
<path d="M0 0 C1.65 0 3.3 0 5 0 C5 1.98 5 3.96 5 6 C3.02 6 1.04 6 -1 6 C-0.67 4.02 -0.34 2.04 0 0 Z " fill="#2490E6" transform="translate(421,433)"/>
<path d="M0 0 C1.2065625 0.0309375 1.2065625 0.0309375 2.4375 0.0625 C2.4375 2.0425 2.4375 4.0225 2.4375 6.0625 C0.7875 6.0625 -0.8625 6.0625 -2.5625 6.0625 C-2.94468767 4.40635343 -3.27645102 2.73792976 -3.5625 1.0625 C-2.5625 0.0625 -2.5625 0.0625 0 0 Z " fill="#2A92E9" transform="translate(302.5625,417.9375)"/>
<path d="M0 0 C1.98 0 3.96 0 6 0 C6 1.65 6 3.3 6 5 C4.02 5.33 2.04 5.66 0 6 C0 4.02 0 2.04 0 0 Z " fill="#2E95E6" transform="translate(516,390)"/>
<path d="M0 0 C1.66611905 -0.042721 3.33382885 -0.04063832 5 0 C6 1 6 1 6.0625 3.5625 C6.041875 4.366875 6.02125 5.17125 6 6 C4.33388095 6.042721 2.66617115 6.04063832 1 6 C0 5 0 5 -0.0625 2.4375 C-0.041875 1.633125 -0.02125 0.82875 0 0 Z " fill="#2A92EA" transform="translate(324,316)"/>
<path d="M0 0 C0.042721 1.66611905 0.04063832 3.33382885 0 5 C-1 6 -1 6 -3.5625 6.0625 C-4.7690625 6.0315625 -4.7690625 6.0315625 -6 6 C-6 4.35 -6 2.7 -6 1 C-4 0 -4 0 0 0 Z " fill="#1D8BE3" transform="translate(447,690)"/>
<path d="M0 0 C1.65 0 3.3 0 5 0 C5.33 1.98 5.66 3.96 6 6 C4.33388095 6.042721 2.66617115 6.04063832 1 6 C0 5 0 5 -0.0625 2.4375 C-0.041875 1.633125 -0.02125 0.82875 0 0 Z " fill="#2690E6" transform="translate(650,631)"/>
<path d="M0 0 C2.97 0.495 2.97 0.495 6 1 C6 2.65 6 4.3 6 6 C4.02 6.99 4.02 6.99 2 8 C0 5 0 5 -1 2 C-0.67 1.34 -0.34 0.68 0 0 Z " fill="#0772CC" transform="translate(450,608)"/>
<path d="M0 0 C0.33 0 0.66 0 1 0 C0.67 4.29 0.34 8.58 0 13 C-0.66 13 -1.32 13 -2 13 C-2.99 16.465 -2.99 16.465 -4 20 C-5.08062462 16.75812614 -4.96405231 16.10290139 -4.00390625 12.98828125 C-3.77509766 12.23095703 -3.54628906 11.47363281 -3.31054688 10.69335938 C-3.06369141 9.90767578 -2.81683594 9.12199219 -2.5625 8.3125 C-2.19801758 7.11657227 -2.19801758 7.11657227 -1.82617188 5.89648438 C-1.22520262 3.92860466 -0.6136095 1.96397505 0 0 Z " fill="#1762A5" transform="translate(448,575)"/>
<path d="M0 0 C0.33 0 0.66 0 1 0 C1.24091535 7.2274605 0.34495828 13.90294338 -1 21 C-1.33 21 -1.66 21 -2 21 C-2.3690205 6.21867882 -2.3690205 6.21867882 0 0 Z " fill="#CEEDF9" transform="translate(449,557)"/>
<path d="M0 0 C1.2065625 0.0309375 1.2065625 0.0309375 2.4375 0.0625 C2.4375 1.7125 2.4375 3.3625 2.4375 5.0625 C0.7875 5.3925 -0.8625 5.7225 -2.5625 6.0625 C-2.94468767 4.40635343 -3.27645102 2.73792976 -3.5625 1.0625 C-2.5625 0.0625 -2.5625 0.0625 0 0 Z " fill="#3097EB" transform="translate(261.5625,427.9375)"/>
<path d="M0 0 C1.67542976 0.28604898 3.34385343 0.61781233 5 1 C5 2.65 5 4.3 5 6 C3.02 6 1.04 6 -1 6 C-1.042721 4.33388095 -1.04063832 2.66617115 -1 1 C-0.67 0.67 -0.34 0.34 0 0 Z " fill="#238CE5" transform="translate(509,257)"/>
<path d="M0 0 C1.32 0.66 2.64 1.32 4 2 C0.87378374 5.39417765 -1.56541027 7.6062718 -6 9 C-5.67 8.34 -5.34 7.68 -5 7 C-4.34 7 -3.68 7 -3 7 C-3.061875 6.21625 -3.12375 5.4325 -3.1875 4.625 C-3.125625 3.75875 -3.06375 2.8925 -3 2 C-2.01 1.34 -1.02 0.68 0 0 Z " fill="#116ABC" transform="translate(521,622)"/>
<path d="M0 0 C1.32 0.33 2.64 0.66 4 1 C4 2.32 4 3.64 4 5 C-0.22222222 9 -0.22222222 9 -3 9 C-2.01 6.03 -1.02 3.06 0 0 Z " fill="#0C69BD" transform="translate(442,594)"/>
<path d="M0 0 C0.66 0 1.32 0 2 0 C2.54372951 3.05847848 3 5.88772805 3 9 C1.35 9.33 -0.3 9.66 -2 10 C-1.85950482 8.52031676 -1.71245174 7.04125484 -1.5625 5.5625 C-1.48128906 4.73878906 -1.40007812 3.91507813 -1.31640625 3.06640625 C-1 1 -1 1 0 0 Z " fill="#0674D0" transform="translate(450,575)"/>
<path d="M0 0 C0.99 0.33 1.98 0.66 3 1 C2.67 1.99 2.34 2.98 2 4 C1.34 4 0.68 4 0 4 C0 5.65 0 7.3 0 9 C-0.99 9.33 -1.98 9.66 -3 10 C-3.36923077 4.58461538 -3.36923077 4.58461538 -1.5 1.625 C-1.005 1.08875 -0.51 0.5525 0 0 Z " fill="#0A78D4" transform="translate(616,571)"/>
<path d="M0 0 C1.65 0.33 3.3 0.66 5 1 C-4.42857143 9 -4.42857143 9 -9 9 C-9 8.34 -9 7.68 -9 7 C-8.38125 6.731875 -7.7625 6.46375 -7.125 6.1875 C-4.7004767 5.04443152 -4.7004767 5.04443152 -3 2 C-2.01 2.33 -1.02 2.66 0 3 C0 2.01 0 1.02 0 0 Z " fill="#1066B1" transform="translate(426,530)"/>
<path d="M0 0 C2.31 0 4.62 0 7 0 C6.00233891 2.49415272 5.31383315 3.78740335 3.0625 5.3125 C1 6 1 6 -2 5 C-2 4.01 -2 3.02 -2 2 C-1.34 2 -0.68 2 0 2 C0 1.34 0 0.68 0 0 Z " fill="#0779D5" transform="translate(466,481)"/>
<path d="M0 0 C2.125 0.375 2.125 0.375 4 1 C4 2.65 4 4.3 4 6 C2.35 6 0.7 6 -1 6 C-1.625 4.125 -1.625 4.125 -2 2 C-1.34 1.34 -0.68 0.68 0 0 Z " fill="#3C9EE8" transform="translate(491,442)"/>
<path d="M0 0 C2.64 0 5.28 0 8 0 C8.33 0.99 8.66 1.98 9 3 C5.57015811 3.94616328 2.55824425 4 -1 4 C-0.67 2.68 -0.34 1.36 0 0 Z " fill="#0C7DDE" transform="translate(484,355)"/>
<path d="M0 0 C0.33 0 0.66 0 1 0 C1 2.64 1 5.28 1 8 C0.34 8 -0.32 8 -1 8 C-1.12375 8.721875 -1.2475 9.44375 -1.375 10.1875 C-1.9904931 12.95721894 -2.88444374 15.3970354 -4 18 C-5.35814777 13.9255567 -3.94745762 11.18531884 -2.5625 7.3125 C-2.31951172 6.61060547 -2.07652344 5.90871094 -1.82617188 5.18554688 C-1.2255056 3.45421468 -0.61380281 1.72671863 0 0 Z " fill="#1760A2" transform="translate(539,556)"/>
<path d="M0 0 C0.33 0.66 0.66 1.32 1 2 C1.5775 1.649375 2.155 1.29875 2.75 0.9375 C5.35801776 -0.14917407 6.39417629 0.06934867 9 1 C9 1.66 9 2.32 9 3 C7.68 2.67 6.36 2.34 5 2 C5 2.99 5 3.98 5 5 C2.23723823 4.47731534 -0.3260876 3.89130413 -3 3 C-3 2.34 -3 1.68 -3 1 C-2.01 0.67 -1.02 0.34 0 0 Z " fill="#0779D5" transform="translate(421,528)"/>
<path d="M0 0 C0.66 0.33 1.32 0.66 2 1 C1.4225 1.40992188 0.845 1.81984375 0.25 2.2421875 C-0.4925 2.78101563 -1.235 3.31984375 -2 3.875 C-3.11375 4.67550781 -3.11375 4.67550781 -4.25 5.4921875 C-4.8275 5.98976563 -5.405 6.48734375 -6 7 C-6 7.66 -6 8.32 -6 9 C-8.31 9 -10.62 9 -13 9 C-10.59497637 6.36479259 -7.9814151 4.59697057 -4.9375 2.75 C-4.05964844 2.20859375 -3.18179687 1.6671875 -2.27734375 1.109375 C-1.52582031 0.74328125 -0.77429688 0.3771875 0 0 Z " fill="#D9F3FB" transform="translate(491,470)"/>
<path d="M0 0 C1.32 0 2.64 0 4 0 C4 2.64 4 5.28 4 8 C3.01 8 2.02 8 1 8 C-0.35439668 5.29120665 -0.06501451 2.99066732 0 0 Z " fill="#2C96EC" transform="translate(663,444)"/>
<path d="M0 0 C0 0.66 0 1.32 0 2 C-1.74784829 2.36463732 -3.49840502 2.7163078 -5.25 3.0625 C-6.71179688 3.35833984 -6.71179688 3.35833984 -8.203125 3.66015625 C-10.868119 3.98397535 -12.48871723 3.85503199 -15 3 C-13.06643218 2.30151736 -11.12797702 1.61655186 -9.1875 0.9375 C-8.10855469 0.55464844 -7.02960938 0.17179688 -5.91796875 -0.22265625 C-3 -1 -3 -1 0 0 Z " fill="#1360A7" transform="translate(486,628)"/>
<path d="M0 0 C0.99 0.33 1.98 0.66 3 1 C2.67 2.32 2.34 3.64 2 5 C1.67 4.67 1.34 4.34 1 4 C1 5.32 1 6.64 1 8 C-0.65 8.33 -2.3 8.66 -4 9 C-2.94124926 5.59687262 -1.99097846 2.98646769 0 0 Z " fill="#0772CC" transform="translate(531,582)"/>
<path d="M0 0 C1.38277746 3.84104849 0.84362303 7.06309254 0 11 C-1.4375 13.4375 -1.4375 13.4375 -3 15 C-3.66 15 -4.32 15 -5 15 C-3.33333333 10 -1.66666667 5 0 0 Z " fill="#D7EFF8" transform="translate(557,573)"/>
<path d="M0 0 C2.31 0 4.62 0 7 0 C6.60167969 0.45890625 6.20335937 0.9178125 5.79296875 1.390625 C3.08857938 4.52271585 0.42008229 7.63877459 -2 11 C-1.48316115 8.41580576 -0.96561977 5.8319189 -0.4375 3.25 C0.03181161 1.21842079 0.03181161 1.21842079 0 0 Z " fill="#1A6DB2" transform="translate(472,477)"/>
<path d="M0 0 C1.32 0 2.64 0 4 0 C4.33 1.98 4.66 3.96 5 6 C2.69 5.67 0.38 5.34 -2 5 C-1.125 1.125 -1.125 1.125 0 0 Z " fill="#0674CE" transform="translate(536,440)"/>
<path d="M0 0 C0.66 0.33 1.32 0.66 2 1 C1.34 1.66 0.68 2.32 0 3 C2.31 3 4.62 3 7 3 C3.71508627 5.18994248 2.16904361 5.35277339 -1.6875 5.625 C-3.17830078 5.73714844 -3.17830078 5.73714844 -4.69921875 5.8515625 C-5.45847656 5.90054688 -6.21773437 5.94953125 -7 6 C-4.80271391 3.75234632 -2.54836445 1.84536736 0 0 Z " fill="#CEEEFB" transform="translate(521,627)"/>
<path d="M0 0 C-1.62170379 1.00533667 -3.24747237 2.00411907 -4.875 3 C-6.23238281 3.8353125 -6.23238281 3.8353125 -7.6171875 4.6875 C-10 6 -10 6 -12 6 C-12 5.01 -12 4.02 -12 3 C-11.34 3 -10.68 3 -10 3 C-10 2.34 -10 1.68 -10 1 C-8.71073008 0.63720544 -7.41846728 0.28503302 -6.125 -0.0625 C-5.40570312 -0.25972656 -4.68640625 -0.45695312 -3.9453125 -0.66015625 C-2 -1 -2 -1 0 0 Z " fill="#0C61AF" transform="translate(591,394)"/>
<path d="M0 0 C2.31 0.33 4.62 0.66 7 1 C5.875 3 5.875 3 4 5 C0.8125 5.25 0.8125 5.25 -2 5 C-2 4.01 -2 3.02 -2 2 C-1.34 2 -0.68 2 0 2 C0 1.34 0 0.68 0 0 Z " fill="#0676CC" transform="translate(514,633)"/>
<path d="M0 0 C1.32 0 2.64 0 4 0 C4 1.32 4 2.64 4 4 C2.35 3.67 0.7 3.34 -1 3 C-1.0825 3.61875 -1.165 4.2375 -1.25 4.875 C-2 7 -2 7 -4.0625 8.25 C-4.701875 8.4975 -5.34125 8.745 -6 9 C-6 8.01 -6 7.02 -6 6 C-5.01 6 -4.02 6 -3 6 C-2.87625 5.38125 -2.7525 4.7625 -2.625 4.125 C-2 2 -2 2 0 0 Z " fill="#0774CF" transform="translate(516,605)"/>
<path d="M0 0 C2.475 0.495 2.475 0.495 5 1 C4.67 2.65 4.34 4.3 4 6 C2.68 5.67 1.36 5.34 0 5 C0 3.35 0 1.7 0 0 Z " fill="#2A94E7" transform="translate(422,489)"/>
<path d="M0 0 C1.65 0 3.3 0 5 0 C5.33 1.32 5.66 2.64 6 4 C4.35 4.33 2.7 4.66 1 5 C0.67 3.35 0.34 1.7 0 0 Z " fill="#48A7F3" transform="translate(459,437)"/>
<path d="M0 0 C0.66 0.66 1.32 1.32 2 2 C5.09926819 1.67801034 5.09926819 1.67801034 8 1 C4.87511433 3.52394612 1.68685613 5.39701907 -2 7 C-2.66 6.67 -3.32 6.34 -4 6 C-3.01 5.67 -2.02 5.34 -1 5 C-1.33 3.68 -1.66 2.36 -2 1 C-1.34 0.67 -0.68 0.34 0 0 Z " fill="#1461AE" transform="translate(619,372)"/>
<path d="M0 0 C1.65 0 3.3 0 5 0 C5.5625 1.9375 5.5625 1.9375 6 4 C5 5 5 5 2.4375 5.0625 C1.2309375 5.0315625 1.2309375 5.0315625 0 5 C0 3.35 0 1.7 0 0 Z " fill="#1786DD" transform="translate(535,592)"/>
<path d="M0 0 C0.99 0.99 1.98 1.98 3 3 C2.67 3.53625 2.34 4.0725 2 4.625 C0.77300796 7.5391061 0.85766714 9.86867708 1 13 C-1 11 -1 11 -1.23046875 8.90625 C-1.21628906 8.1121875 -1.20210938 7.318125 -1.1875 6.5 C-1.18105469 5.7059375 -1.17460937 4.911875 -1.16796875 4.09375 C-1 2 -1 2 0 0 Z " fill="#EBF8FB" transform="translate(377,567)"/>
<path d="M0 0 C1.65 0 3.3 0 5 0 C4.67 1.65 4.34 3.3 4 5 C2.68 5.33 1.36 5.66 0 6 C0 4.02 0 2.04 0 0 Z " fill="#2590E8" transform="translate(348,539)"/>
<path d="M0 0 C1.65 0 3.3 0 5 0 C5 1.65 5 3.3 5 5 C3.35 5 1.7 5 0 5 C0 3.35 0 1.7 0 0 Z " fill="#1E8CE5" transform="translate(470,661)"/>
<path d="M0 0 C2.97 0.495 2.97 0.495 6 1 C0.85714286 6.57142857 0.85714286 6.57142857 -3 7 C-3 6.34 -3 5.68 -3 5 C-2.01 5 -1.02 5 0 5 C0 4.34 0 3.68 0 3 C-0.66 2.67 -1.32 2.34 -2 2 C-1.34 2 -0.68 2 0 2 C0 1.34 0 0.68 0 0 Z " fill="#E1F4FA" transform="translate(419,618)"/>
<path d="M0 0 C1.32 0 2.64 0 4 0 C3.625 2.4375 3.625 2.4375 3 5 C0.50907189 6.24546405 -0.41080733 5.7767578 -3 5 C-3 4.01 -3 3.02 -3 2 C-1.68 2 -0.36 2 1 2 C0.67 1.34 0.34 0.68 0 0 Z " fill="#0D81D8" transform="translate(457,583)"/>
<path d="M0 0 C1.65 0 3.3 0 5 0 C5.33 0.66 5.66 1.32 6 2 C5.01 3.485 5.01 3.485 4 5 C2.68 5 1.36 5 0 5 C0 3.35 0 1.7 0 0 Z " fill="#1F8EE7" transform="translate(422,426)"/>
<path d="M0 0 C1.65 0 3.3 0 5 0 C5 1.65 5 3.3 5 5 C3.35 5 1.7 5 0 5 C0 3.35 0 1.7 0 0 Z " fill="#2E96E9" transform="translate(510,396)"/>
<path d="M0 0 C1.65 0 3.3 0 5 0 C5 1.65 5 3.3 5 5 C3.35 4.67 1.7 4.34 0 4 C0 2.68 0 1.36 0 0 Z " fill="#1F8DE6" transform="translate(458,669)"/>
<path d="M0 0 C1.32 0.33 2.64 0.66 4 1 C4 2.32 4 3.64 4 5 C2.35 5.33 0.7 5.66 -1 6 C-1 2 -1 2 0 0 Z " fill="#1385E0" transform="translate(600,608)"/>
<path d="M0 0 C1.65 0 3.3 0 5 0 C5.33 1.32 5.66 2.64 6 4 C5.01 4.33 4.02 4.66 3 5 C2.01 4.34 1.02 3.68 0 3 C0 2.01 0 1.02 0 0 Z " fill="#1B8AE4" transform="translate(362,541)"/>
<path d="M0 0 C2.97 0.495 2.97 0.495 6 1 C6 1.66 6 2.32 6 3 C5.34 3 4.68 3 4 3 C4 3.66 4 4.32 4 5 C2.68 5 1.36 5 0 5 C0 3.35 0 1.7 0 0 Z " fill="#1C8AE5" transform="translate(325,508)"/>
<path d="M0 0 C1.65 0 3.3 0 5 0 C2.20283196 3.29078593 -1.19528578 5.06305458 -5 7 C-5.66 6.67 -6.32 6.34 -7 6 C-6.01 5.67 -5.02 5.34 -4 5 C-4 4.01 -4 3.02 -4 2 C-2.68 2 -1.36 2 0 2 C0 1.34 0 0.68 0 0 Z " fill="#1566AD" transform="translate(515,453)"/>
<path d="M0 0 C2.475 0.99 2.475 0.99 5 2 C4.67 3.65 4.34 5.3 4 7 C2.68 7 1.36 7 0 7 C0 4.69 0 2.38 0 0 Z " fill="#1885DE" transform="translate(430,440)"/>
<path d="M0 0 C1.32 0.33 2.64 0.66 4 1 C2.37829621 2.00533667 0.75252763 3.00411907 -0.875 4 C-2.23238281 4.8353125 -2.23238281 4.8353125 -3.6171875 5.6875 C-6 7 -6 7 -8 7 C-8 6.01 -8 5.02 -8 4 C-5.36 3.34 -2.72 2.68 0 2 C0 1.34 0 0.68 0 0 Z " fill="#1560A5" transform="translate(611,379)"/>
<path d="M0 0 C2.475 0.495 2.475 0.495 5 1 C5 2.32 5 3.64 5 5 C3.35 5 1.7 5 0 5 C0 3.35 0 1.7 0 0 Z " fill="#1783E2" transform="translate(516,223)"/>
<path d="M0 0 C-3.63 1.98 -7.26 3.96 -11 6 C-11.66 5.34 -12.32 4.68 -13 4 C-11.40233897 3.13372601 -9.79660056 2.28233535 -8.1875 1.4375 C-7.29417969 0.96183594 -6.40085937 0.48617187 -5.48046875 -0.00390625 C-3 -1 -3 -1 0 0 Z " fill="#0871D1" transform="translate(571,618)"/>
<path d="M0 0 C2.475 0.495 2.475 0.495 5 1 C4.67 2.32 4.34 3.64 4 5 C2.68 5 1.36 5 0 5 C0 3.35 0 1.7 0 0 Z " fill="#1A88E5" transform="translate(303,579)"/>
<path d="M0 0 C1.98 0.495 1.98 0.495 4 1 C4 2.32 4 3.64 4 5 C2.35 5 0.7 5 -1 5 C-0.67 3.35 -0.34 1.7 0 0 Z " fill="#1C89E4" transform="translate(741,465)"/>
<path d="M0 0 C1.32 0.33 2.64 0.66 4 1 C4 2.65 4 4.3 4 6 C2.68 6 1.36 6 0 6 C0 4.02 0 2.04 0 0 Z " fill="#1B8BE5" transform="translate(453,351)"/>
<path d="M0 0 C1.65 0 3.3 0 5 0 C5 1.65 5 3.3 5 5 C3.35 4.67 1.7 4.34 0 4 C0 2.68 0 1.36 0 0 Z " fill="#2991E8" transform="translate(374,316)"/>
<path d="M0 0 C1.98 0.495 1.98 0.495 4 1 C4 2.32 4 3.64 4 5 C2.35 5 0.7 5 -1 5 C-0.67 3.35 -0.34 1.7 0 0 Z " fill="#2793EC" transform="translate(523,309)"/>
<path d="M0 0 C0.66 1.32 1.32 2.64 2 4 C0.68 5.32 -0.64 6.64 -2 8 C-2.66 6.68 -3.32 5.36 -4 4 C-2.68 2.68 -1.36 1.36 0 0 Z " fill="#ECF6FA" transform="translate(521,591)"/>
<path d="M0 0 C1.65 0 3.3 0 5 0 C4.67 1.65 4.34 3.3 4 5 C2.68 4.67 1.36 4.34 0 4 C0 2.68 0 1.36 0 0 Z " fill="#1E8CE3" transform="translate(510,387)"/>
<path d="M0 0 C2.31 0.33 4.62 0.66 7 1 C3.99382731 4.00617269 1.17618402 3.59585316 -3 4 C-2.01 2.68 -1.02 1.36 0 0 Z " fill="#DFF4FA" transform="translate(476,626)"/>
<path d="M0 0 C0.33 0.66 0.66 1.32 1 2 C-0.65 4.31 -2.3 6.62 -4 9 C-5 7 -5 7 -4.25 3.9375 C-3.8375 2.968125 -3.425 1.99875 -3 1 C-2.01 0.67 -1.02 0.34 0 0 Z " fill="#1262A9" transform="translate(454,614)"/>
<path d="M0 0 C1.98 0.495 1.98 0.495 4 1 C3.67 2.32 3.34 3.64 3 5 C1.68 4.67 0.36 4.34 -1 4 C-0.67 2.68 -0.34 1.36 0 0 Z " fill="#0B7DD9" transform="translate(636,551)"/>
<path d="M0 0 C-3.63 1.98 -7.26 3.96 -11 6 C-10.67 4.68 -10.34 3.36 -10 2 C-3.87234043 -1.29078014 -3.87234043 -1.29078014 0 0 Z " fill="#0973CD" transform="translate(396,551)"/>
<path d="M0 0 C0.99 0.33 1.98 0.66 3 1 C0.8125 3.5625 0.8125 3.5625 -2 6 C-4.8125 5.8125 -4.8125 5.8125 -7 5 C-2.25 1.125 -2.25 1.125 0 0 Z " fill="#E1F5FB" transform="translate(500,465)"/>
<path d="M0 0 C0.33 0.99 0.66 1.98 1 3 C2.98 2.67 4.96 2.34 7 2 C6 4 6 4 2.9375 5.125 C1.4834375 5.558125 1.4834375 5.558125 0 6 C0 5.01 0 4.02 0 3 C-1.32 2.67 -2.64 2.34 -4 2 C-2.68 1.34 -1.36 0.68 0 0 Z " fill="#0C7CD6" transform="translate(515,393)"/>
<path d="M0 0 C1.32 0 2.64 0 4 0 C4 1.65 4 3.3 4 5 C2.68 5 1.36 5 0 5 C0 3.35 0 1.7 0 0 Z " fill="#1F8FE9" transform="translate(530,654)"/>
<path d="M0 0 C1.32 1.32 2.64 2.64 4 4 C1.69 4.66 -0.62 5.32 -3 6 C-3 3 -3 3 -1.5 1.3125 C-0.7575 0.6628125 -0.7575 0.6628125 0 0 Z " fill="#0877D2" transform="translate(441,622)"/>
<path d="M0 0 C1.65 0 3.3 0 5 0 C5 1.32 5 2.64 5 4 C3.35 4 1.7 4 0 4 C0 2.68 0 1.36 0 0 Z " fill="#1C8AE8" transform="translate(654,613)"/>
<path d="M0 0 C0 3 0 3 -1.4375 4.5 C-1.953125 4.995 -2.46875 5.49 -3 6 C-3.33 6.99 -3.66 7.98 -4 9 C-5.32 8.67 -6.64 8.34 -8 8 C-5.36 5.36 -2.72 2.72 0 0 Z " fill="#2268B0" transform="translate(517,602)"/>
<path d="M0 0 C1.32 0 2.64 0 4 0 C4 1.65 4 3.3 4 5 C2.68 5 1.36 5 0 5 C0 3.35 0 1.7 0 0 Z " fill="#2091E9" transform="translate(366,590)"/>
<path d="M0 0 C2.31 0.66 4.62 1.32 7 2 C6.67 2.66 6.34 3.32 6 4 C4.35 4 2.7 4 1 4 C0.67 2.68 0.34 1.36 0 0 Z " fill="#1E8CE3" transform="translate(377,544)"/>
<path d="M0 0 C1.65 0 3.3 0 5 0 C5 1.32 5 2.64 5 4 C3.35 4 1.7 4 0 4 C0 2.68 0 1.36 0 0 Z " fill="#1F8EE9" transform="translate(281,521)"/>
<path d="M0 0 C1.65 0 3.3 0 5 0 C5 1.32 5 2.64 5 4 C3.35 4 1.7 4 0 4 C0 2.68 0 1.36 0 0 Z " fill="#2492EE" transform="translate(317,520)"/>
<path d="M0 0 C1.32 0 2.64 0 4 0 C4 1.65 4 3.3 4 5 C2.68 5 1.36 5 0 5 C0 3.35 0 1.7 0 0 Z " fill="#2191E9" transform="translate(400,474)"/>
<path d="M0 0 C-1.25 1.5 -1.25 1.5 -3 3 C-4.32 3 -5.64 3 -7 3 C-7.33 3.66 -7.66 4.32 -8 5 C-8.66 4.34 -9.32 3.68 -10 3 C-3.375 -1.125 -3.375 -1.125 0 0 Z " fill="#DCF1FB" transform="translate(530,450)"/>
<path d="M0 0 C1.32 0 2.64 0 4 0 C4 1.65 4 3.3 4 5 C2.68 5 1.36 5 0 5 C0 3.35 0 1.7 0 0 Z " fill="#1785E5" transform="translate(314,401)"/>
<path d="M0 0 C0.99 0.33 1.98 0.66 3 1 C2.67 2.32 2.34 3.64 2 5 C0.68 5 -0.64 5 -2 5 C-1.125 1.125 -1.125 1.125 0 0 Z " fill="#1385E1" transform="translate(407,384)"/>
<path d="M0 0 C1.32 0 2.64 0 4 0 C4 1.65 4 3.3 4 5 C2.68 5 1.36 5 0 5 C0 3.35 0 1.7 0 0 Z " fill="#3CA3F5" transform="translate(548,377)"/>
<path d="M0 0 C1.32 0 2.64 0 4 0 C4 1.65 4 3.3 4 5 C2.68 5 1.36 5 0 5 C0 3.35 0 1.7 0 0 Z " fill="#2590EB" transform="translate(655,350)"/>
<path d="M0 0 C1.65 0 3.3 0 5 0 C5 1.32 5 2.64 5 4 C3.35 4 1.7 4 0 4 C0 2.68 0 1.36 0 0 Z " fill="#2C93EC" transform="translate(668,344)"/>
<path d="M0 0 C1.32 0.33 2.64 0.66 4 1 C4 2.32 4 3.64 4 5 C2.68 5 1.36 5 0 5 C0 3.35 0 1.7 0 0 Z " fill="#1B8AE7" transform="translate(442,654)"/>
<path d="M0 0 C0.33 0.66 0.66 1.32 1 2 C0.0625 4.625 0.0625 4.625 -1 7 C-2.65 7 -4.3 7 -6 7 C-4.02 4.69 -2.04 2.38 0 0 Z " fill="#E1F6FE" transform="translate(451,621)"/>
<path d="M0 0 C0.33 0.66 0.66 1.32 1 2 C-0.375 3.5 -0.375 3.5 -2 5 C-2.66 5 -3.32 5 -4 5 C-4 5.66 -4 6.32 -4 7 C-5.32 6.67 -6.64 6.34 -8 6 C-5.36 4.02 -2.72 2.04 0 0 Z " fill="#135FA5" transform="translate(585,604)"/>
<path d="M0 0 C1.32 0 2.64 0 4 0 C4 1.65 4 3.3 4 5 C2.68 4.67 1.36 4.34 0 4 C0 2.68 0 1.36 0 0 Z " fill="#2794ED" transform="translate(275,548)"/>
<path d="M0 0 C0.99 0 1.98 0 3 0 C3 1.65 3 3.3 3 5 C1.68 5 0.36 5 -1 5 C-0.67 3.35 -0.34 1.7 0 0 Z " fill="#1D8BE6" transform="translate(306,544)"/>
<path d="M0 0 C1.32 0.33 2.64 0.66 4 1 C4 2.32 4 3.64 4 5 C2.68 5 1.36 5 0 5 C0 3.35 0 1.7 0 0 Z " fill="#2995EB" transform="translate(529,430)"/>
<path d="M0 0 C1.5625 1.25 1.5625 1.25 3 3 C2.6875 5.1875 2.6875 5.1875 2 7 C1.01 6.34 0.02 5.68 -1 5 C-0.67 3.35 -0.34 1.7 0 0 Z " fill="#0F84E0" transform="translate(476,427)"/>
<path d="M0 0 C1.65 0 3.3 0 5 0 C4.67 1.32 4.34 2.64 4 4 C2.68 4 1.36 4 0 4 C0 2.68 0 1.36 0 0 Z " fill="#2895ED" transform="translate(678,420)"/>
<path d="M0 0 C1.65 0 3.3 0 5 0 C5 1.32 5 2.64 5 4 C3.35 3.67 1.7 3.34 0 3 C0 2.01 0 1.02 0 0 Z " fill="#1384E2" transform="translate(698,418)"/>
<path d="M0 0 C1.32 0 2.64 0 4 0 C4 1.32 4 2.64 4 4 C2.35 4 0.7 4 -1 4 C-0.67 2.68 -0.34 1.36 0 0 Z " fill="#1D8BE4" transform="translate(448,351)"/>
<path d="M0 0 C1.32 0 2.64 0 4 0 C3.67 1.65 3.34 3.3 3 5 C2.01 5 1.02 5 0 5 C0 3.35 0 1.7 0 0 Z " fill="#218FE6" transform="translate(560,313)"/>
<path d="M0 0 C1.65 0 3.3 0 5 0 C5 1.32 5 2.64 5 4 C3.35 3.67 1.7 3.34 0 3 C0 2.01 0 1.02 0 0 Z " fill="#1986E4" transform="translate(502,218)"/>
<path d="M0 0 C1.32 0 2.64 0 4 0 C4 1.32 4 2.64 4 4 C2.35 3.67 0.7 3.34 -1 3 C-0.67 2.01 -0.34 1.02 0 0 Z " fill="#1C8DE9" transform="translate(539,686)"/>
<path d="M0 0 C0.99 0.33 1.98 0.66 3 1 C3 4 3 4 2 6 C0.35 5.67 -1.3 5.34 -3 5 C-2.01 3.35 -1.02 1.7 0 0 Z " fill="#0773CE" transform="translate(436,608)"/>
<path d="M0 0 C1.98 0.495 1.98 0.495 4 1 C4 1.99 4 2.98 4 4 C2.35 4 0.7 4 -1 4 C-0.67 2.68 -0.34 1.36 0 0 Z " fill="#1B8BE5" transform="translate(623,594)"/>
<path d="M0 0 C0.99 0 1.98 0 3 0 C3 1.65 3 3.3 3 5 C1.68 4.67 0.36 4.34 -1 4 C-0.67 2.68 -0.34 1.36 0 0 Z " fill="#188AE7" transform="translate(650,573)"/>
<path d="M0 0 C2 1 2 1 2.75 2.75 C3.07158914 5.64430225 2.22746624 7.40065973 1 10 C0.67 10 0.34 10 0 10 C0 6.7 0 3.4 0 0 Z " fill="#0476CE" transform="translate(452,556)"/>
<path d="M0 0 C1.32 0.66 2.64 1.32 4 2 C3.25 3.9375 3.25 3.9375 2 6 C-0.125 6.75 -0.125 6.75 -2 7 C-2 6.34 -2 5.68 -2 5 C-1.01 5 -0.02 5 1 5 C0.67 3.35 0.34 1.7 0 0 Z " fill="#0978CF" transform="translate(496,460)"/>
<path d="M0 0 C0.66 0.33 1.32 0.66 2 1 C1.34 2.32 0.68 3.64 0 5 C-1.65 4.67 -3.3 4.34 -5 4 C-3.36587557 2.29159719 -2.13093906 1.06546953 0 0 Z " fill="#E1F5FA" transform="translate(517,455)"/>
<path d="M0 0 C0.99 0 1.98 0 3 0 C2.67 1.65 2.34 3.3 2 5 C1.01 5 0.02 5 -1 5 C-0.67 3.35 -0.34 1.7 0 0 Z " fill="#2292EA" transform="translate(392,431)"/>
<path d="M0 0 C0.99 0 1.98 0 3 0 C2.67 1.65 2.34 3.3 2 5 C1.01 5 0.02 5 -1 5 C-0.67 3.35 -0.34 1.7 0 0 Z " fill="#1885E4" transform="translate(265,417)"/>
<path d="M0 0 C1.32 0 2.64 0 4 0 C4 1.32 4 2.64 4 4 C2.35 3.67 0.7 3.34 -1 3 C-0.67 2.01 -0.34 1.02 0 0 Z " fill="#1884DB" transform="translate(564,399)"/>
<path d="M0 0 C1.5 1 1.5 1 3 3 C3.27345479 5.71846235 3.13491285 8.25677199 3 11 C2.67 11 2.34 11 2 11 C2 9.02 2 7.04 2 5 C1.34 5 0.68 5 0 5 C-0.33 4.01 -0.66 3.02 -1 2 C-0.67 1.34 -0.34 0.68 0 0 Z " fill="#1369C3" transform="translate(644,376)"/>
<path d="M0 0 C1.11375 0.3403125 1.11375 0.3403125 2.25 0.6875 C-0.4355594 3.3730594 -3.12621328 3.74799974 -6.75 4.6875 C-6.75 2.6875 -6.75 2.6875 -5.0625 1 C-2.75 -0.3125 -2.75 -0.3125 0 0 Z " fill="#0B6ED1" transform="translate(626.75,370.3125)"/>
<path d="M0 0 C1.98 0.495 1.98 0.495 4 1 C4 1.99 4 2.98 4 4 C2.35 4 0.7 4 -1 4 C-0.67 2.68 -0.34 1.36 0 0 Z " fill="#1D8DE8" transform="translate(455,363)"/>
<path d="M0 0 C1.65 0 3.3 0 5 0 C4.67 1.32 4.34 2.64 4 4 C3.01 4 2.02 4 1 4 C0.67 2.68 0.34 1.36 0 0 Z " fill="#1688E4" transform="translate(406,663)"/>
<path d="M0 0 C0.66 0 1.32 0 2 0 C2.33 1.65 2.66 3.3 3 5 C1.68 5 0.36 5 -1 5 C-0.67 3.35 -0.34 1.7 0 0 Z " fill="#0C7EDA" transform="translate(479,638)"/>
<path d="M0 0 C1 3 1 3 -0.4375 6.1875 C-1.2109375 7.5796875 -1.2109375 7.5796875 -2 9 C-2.66 8.01 -3.32 7.02 -4 6 C-3.0022242 3.00667261 -2.2477975 2.05233685 0 0 Z " fill="#0C5DA8" transform="translate(459,603)"/>
<path d="M0 0 C2.475 0.99 2.475 0.99 5 2 C4.67 2.99 4.34 3.98 4 5 C2.68 4.34 1.36 3.68 0 3 C0 2.01 0 1.02 0 0 Z " fill="#0B7DDD" transform="translate(701,491)"/>
<path d="M0 0 C1.32 0 2.64 0 4 0 C4 1.32 4 2.64 4 4 C2.68 4 1.36 4 0 4 C-0.33 3.01 -0.66 2.02 -1 1 C-0.67 0.67 -0.34 0.34 0 0 Z " fill="#0C7DD5" transform="translate(492,434)"/>
<path d="M0 0 C5.02254631 -0.2954439 7.89542386 0.01485372 12 3 C10.125 3.625 10.125 3.625 8 4 C7.34 3.34 6.68 2.68 6 2 C4.01178687 1.60235737 2.01055661 1.26224651 0 1 C0 0.67 0 0.34 0 0 Z " fill="#BEDEF3" transform="translate(630,372)"/>
<path d="M0 0 C0.99 0.33 1.98 0.66 3 1 C3 2.32 3 3.64 3 5 C1.68 4.67 0.36 4.34 -1 4 C-0.67 2.68 -0.34 1.36 0 0 Z " fill="#1A88E9" transform="translate(436,292)"/>
</svg>
